<?xml version="1.0" encoding="UTF-8" standalone="no"?>
<!DOCTYPE svg PUBLIC "-//W3C//DTD SVG 1.1//EN"
 "http://www.w3.org/Graphics/SVG/1.1/DTD/svg11.dtd">
<!-- Generated by graphviz version 2.40.1 (20161225.0304)
 -->
<!-- Title: dependencies Pages: 1 -->
<svg width="686pt" height="211pt"
 viewBox="0.00 0.00 686.00 211.00" xmlns="http://www.w3.org/2000/svg" xmlns:xlink="http://www.w3.org/1999/xlink">
<g id="graph0" class="graph" transform="scale(1 1) rotate(0) translate(4 207)">
<title>dependencies</title>
<polygon fill="#ffffff" stroke="transparent" points="-4,4 -4,-207 682,-207 682,4 -4,4"/>
<text text-anchor="start" x="318.0091" y="-42.4" font-family="sans-serif" font-weight="bold" font-size="14.00" fill="#000000">Legend</text>
<polygon fill="#ffffb3" stroke="transparent" points="105,-10 105,-30 125,-30 125,-10 105,-10"/>
<text text-anchor="start" x="128.629" y="-15.4" font-family="sans-serif" font-size="14.00" fill="#000000"> &#160;Declarations</text>
<polygon fill="#8dd3c7" stroke="transparent" points="218,-10 218,-30 238,-30 238,-10 218,-10"/>
<text text-anchor="start" x="241.7251" y="-15.4" font-family="sans-serif" font-size="14.00" fill="#000000"> &#160;Module</text>
<polygon fill="#80b1d3" stroke="transparent" points="304,-10 304,-30 324,-30 324,-10 304,-10"/>
<text text-anchor="start" x="327.7812" y="-15.4" font-family="sans-serif" font-size="14.00" fill="#000000"> &#160;Bootstrap</text>
<polygon fill="#fdb462" stroke="transparent" points="401,-10 401,-30 421,-30 421,-10 401,-10"/>
<text text-anchor="start" x="424.6732" y="-15.4" font-family="sans-serif" font-size="14.00" fill="#000000"> &#160;Providers</text>
<polygon fill="#fb8072" stroke="transparent" points="497,-10 497,-30 517,-30 517,-10 497,-10"/>
<text text-anchor="start" x="520.7258" y="-15.4" font-family="sans-serif" font-size="14.00" fill="#000000"> &#160;Exports</text>
<g id="clust1" class="cluster">
<title>cluster_OrdersModule</title>
<polygon fill="none" stroke="#000000" stroke-dasharray="1,5" points="8,-70 8,-195 670,-195 670,-70 8,-70"/>
</g>
<g id="clust2" class="cluster">
<title>cluster_OrdersModule_declarations</title>
<polygon fill="none" stroke="#000000" points="182,-78 182,-130 662,-130 662,-78 182,-78"/>
</g>
<g id="clust6" class="cluster">
<title>cluster_OrdersModule_imports</title>
<polygon fill="none" stroke="#000000" points="16,-78 16,-130 174,-130 174,-78 16,-78"/>
</g>
<!-- AddOrdersComponent -->
<g id="node1" class="node">
<title>AddOrdersComponent</title>
<polygon fill="#ffffb3" stroke="#000000" points="653.5268,-122 510.4732,-122 510.4732,-86 653.5268,-86 653.5268,-122"/>
<text text-anchor="middle" x="582" y="-99.8" font-family="Times,serif" font-size="14.00" fill="#000000">AddOrdersComponent</text>
</g>
<!-- OrdersModule -->
<g id="node4" class="node">
<title>OrdersModule</title>
<polygon fill="#8dd3c7" stroke="#000000" points="389.6375,-187 386.6375,-191 365.6375,-191 362.6375,-187 292.3625,-187 292.3625,-151 389.6375,-151 389.6375,-187"/>
<text text-anchor="middle" x="341" y="-164.8" font-family="Times,serif" font-size="14.00" fill="#000000">OrdersModule</text>
</g>
<!-- AddOrdersComponent&#45;&gt;OrdersModule -->
<g id="edge1" class="edge">
<title>AddOrdersComponent&#45;&gt;OrdersModule</title>
<path fill="none" stroke="#000000" d="M582,-122.1061C582,-141.3391 582,-169 582,-169 582,-169 399.7699,-169 399.7699,-169"/>
<polygon fill="#000000" stroke="#000000" points="399.77,-165.5001 389.7699,-169 399.7699,-172.5001 399.77,-165.5001"/>
</g>
<!-- EditOrdersComponent -->
<g id="node2" class="node">
<title>EditOrdersComponent</title>
<polygon fill="#ffffb3" stroke="#000000" points="492.2534,-122 349.7466,-122 349.7466,-86 492.2534,-86 492.2534,-122"/>
<text text-anchor="middle" x="421" y="-99.8" font-family="Times,serif" font-size="14.00" fill="#000000">EditOrdersComponent</text>
</g>
<!-- EditOrdersComponent&#45;&gt;OrdersModule -->
<g id="edge2" class="edge">
<title>EditOrdersComponent&#45;&gt;OrdersModule</title>
<path fill="none" stroke="#000000" d="M369.7209,-122.1061C369.7209,-122.1061 369.7209,-140.991 369.7209,-140.991"/>
<polygon fill="#000000" stroke="#000000" points="366.221,-140.9909 369.7209,-150.991 373.221,-140.991 366.221,-140.9909"/>
</g>
<!-- ListOrdersComponent -->
<g id="node3" class="node">
<title>ListOrdersComponent</title>
<polygon fill="#ffffb3" stroke="#000000" points="331.6979,-122 190.3021,-122 190.3021,-86 331.6979,-86 331.6979,-122"/>
<text text-anchor="middle" x="261" y="-99.8" font-family="Times,serif" font-size="14.00" fill="#000000">ListOrdersComponent</text>
</g>
<!-- ListOrdersComponent&#45;&gt;OrdersModule -->
<g id="edge3" class="edge">
<title>ListOrdersComponent&#45;&gt;OrdersModule</title>
<path fill="none" stroke="#000000" d="M311.8903,-122.1061C311.8903,-122.1061 311.8903,-140.991 311.8903,-140.991"/>
<polygon fill="#000000" stroke="#000000" points="308.3903,-140.9909 311.8903,-150.991 315.3903,-140.991 308.3903,-140.9909"/>
</g>
<!-- OrdersRoutingModule -->
<g id="node5" class="node">
<title>OrdersRoutingModule</title>
<polygon fill="#8dd3c7" stroke="#000000" points="166.2548,-122 163.2548,-126 142.2548,-126 139.2548,-122 23.7452,-122 23.7452,-86 166.2548,-86 166.2548,-122"/>
<text text-anchor="middle" x="95" y="-99.8" font-family="Times,serif" font-size="14.00" fill="#000000">OrdersRoutingModule</text>
</g>
<!-- OrdersRoutingModule&#45;&gt;OrdersModule -->
<g id="edge4" class="edge">
<title>OrdersRoutingModule&#45;&gt;OrdersModule</title>
<path fill="none" stroke="#000000" d="M95,-122.1061C95,-141.3391 95,-169 95,-169 95,-169 282.1042,-169 282.1042,-169"/>
<polygon fill="#000000" stroke="#000000" points="282.1042,-172.5001 292.1042,-169 282.1042,-165.5001 282.1042,-172.5001"/>
</g>
</g>
</svg>
