<?xml version="1.0" encoding="UTF-8" standalone="no"?>
<!DOCTYPE svg PUBLIC "-//W3C//DTD SVG 1.1//EN"
 "http://www.w3.org/Graphics/SVG/1.1/DTD/svg11.dtd">
<!-- Generated by graphviz version 2.40.1 (20161225.0304)
 -->
<!-- Title: dependencies Pages: 1 -->
<svg width="939pt" height="211pt"
 viewBox="0.00 0.00 939.00 211.00" xmlns="http://www.w3.org/2000/svg" xmlns:xlink="http://www.w3.org/1999/xlink">
<g id="graph0" class="graph" transform="scale(1 1) rotate(0) translate(4 207)">
<title>dependencies</title>
<polygon fill="#ffffff" stroke="transparent" points="-4,4 -4,-207 935,-207 935,4 -4,4"/>
<text text-anchor="start" x="444.5091" y="-42.4" font-family="sans-serif" font-weight="bold" font-size="14.00" fill="#000000">Legend</text>
<polygon fill="#ffffb3" stroke="transparent" points="231.5,-10 231.5,-30 251.5,-30 251.5,-10 231.5,-10"/>
<text text-anchor="start" x="255.129" y="-15.4" font-family="sans-serif" font-size="14.00" fill="#000000"> &#160;Declarations</text>
<polygon fill="#8dd3c7" stroke="transparent" points="344.5,-10 344.5,-30 364.5,-30 364.5,-10 344.5,-10"/>
<text text-anchor="start" x="368.2251" y="-15.4" font-family="sans-serif" font-size="14.00" fill="#000000"> &#160;Module</text>
<polygon fill="#80b1d3" stroke="transparent" points="430.5,-10 430.5,-30 450.5,-30 450.5,-10 430.5,-10"/>
<text text-anchor="start" x="454.2812" y="-15.4" font-family="sans-serif" font-size="14.00" fill="#000000"> &#160;Bootstrap</text>
<polygon fill="#fdb462" stroke="transparent" points="527.5,-10 527.5,-30 547.5,-30 547.5,-10 527.5,-10"/>
<text text-anchor="start" x="551.1732" y="-15.4" font-family="sans-serif" font-size="14.00" fill="#000000"> &#160;Providers</text>
<polygon fill="#fb8072" stroke="transparent" points="623.5,-10 623.5,-30 643.5,-30 643.5,-10 623.5,-10"/>
<text text-anchor="start" x="647.2258" y="-15.4" font-family="sans-serif" font-size="14.00" fill="#000000"> &#160;Exports</text>
<g id="clust1" class="cluster">
<title>cluster_OrdersModule</title>
<polygon fill="none" stroke="#000000" stroke-dasharray="1,5" points="8,-70 8,-195 923,-195 923,-70 8,-70"/>
</g>
<g id="clust2" class="cluster">
<title>cluster_OrdersModule_declarations</title>
<polygon fill="none" stroke="#000000" points="435,-78 435,-130 915,-130 915,-78 435,-78"/>
</g>
<g id="clust6" class="cluster">
<title>cluster_OrdersModule_imports</title>
<polygon fill="none" stroke="#000000" points="16,-78 16,-130 427,-130 427,-78 16,-78"/>
</g>
<!-- AddOrdersComponent -->
<g id="node1" class="node">
<title>AddOrdersComponent</title>
<polygon fill="#ffffb3" stroke="#000000" points="906.5268,-122 763.4732,-122 763.4732,-86 906.5268,-86 906.5268,-122"/>
<text text-anchor="middle" x="835" y="-99.8" font-family="Times,serif" font-size="14.00" fill="#000000">AddOrdersComponent</text>
</g>
<!-- OrdersModule -->
<g id="node4" class="node">
<title>OrdersModule</title>
<polygon fill="#8dd3c7" stroke="#000000" points="479.6375,-187 476.6375,-191 455.6375,-191 452.6375,-187 382.3625,-187 382.3625,-151 479.6375,-151 479.6375,-187"/>
<text text-anchor="middle" x="431" y="-164.8" font-family="Times,serif" font-size="14.00" fill="#000000">OrdersModule</text>
</g>
<!-- AddOrdersComponent&#45;&gt;OrdersModule -->
<g id="edge1" class="edge">
<title>AddOrdersComponent&#45;&gt;OrdersModule</title>
<path fill="none" stroke="#000000" d="M835,-122.2843C835,-143.3211 835,-175 835,-175 835,-175 489.7318,-175 489.7318,-175"/>
<polygon fill="#000000" stroke="#000000" points="489.7319,-171.5001 479.7318,-175 489.7318,-178.5001 489.7319,-171.5001"/>
</g>
<!-- EditOrdersComponent -->
<g id="node2" class="node">
<title>EditOrdersComponent</title>
<polygon fill="#ffffb3" stroke="#000000" points="745.2534,-122 602.7466,-122 602.7466,-86 745.2534,-86 745.2534,-122"/>
<text text-anchor="middle" x="674" y="-99.8" font-family="Times,serif" font-size="14.00" fill="#000000">EditOrdersComponent</text>
</g>
<!-- EditOrdersComponent&#45;&gt;OrdersModule -->
<g id="edge2" class="edge">
<title>EditOrdersComponent&#45;&gt;OrdersModule</title>
<path fill="none" stroke="#000000" d="M674,-122.0225C674,-139.3734 674,-163 674,-163 674,-163 489.8824,-163 489.8824,-163"/>
<polygon fill="#000000" stroke="#000000" points="489.8824,-159.5001 479.8824,-163 489.8823,-166.5001 489.8824,-159.5001"/>
</g>
<!-- ListOrdersComponent -->
<g id="node3" class="node">
<title>ListOrdersComponent</title>
<polygon fill="#ffffb3" stroke="#000000" points="584.6979,-122 443.3021,-122 443.3021,-86 584.6979,-86 584.6979,-122"/>
<text text-anchor="middle" x="514" y="-99.8" font-family="Times,serif" font-size="14.00" fill="#000000">ListOrdersComponent</text>
</g>
<!-- ListOrdersComponent&#45;&gt;OrdersModule -->
<g id="edge3" class="edge">
<title>ListOrdersComponent&#45;&gt;OrdersModule</title>
<path fill="none" stroke="#000000" d="M461.6098,-122.1061C461.6098,-122.1061 461.6098,-140.991 461.6098,-140.991"/>
<polygon fill="#000000" stroke="#000000" points="458.1098,-140.9909 461.6098,-150.991 465.1098,-140.991 458.1098,-140.9909"/>
</g>
<!-- OrdersRoutingModule -->
<g id="node5" class="node">
<title>OrdersRoutingModule</title>
<polygon fill="#8dd3c7" stroke="#000000" points="419.2548,-122 416.2548,-126 395.2548,-126 392.2548,-122 276.7452,-122 276.7452,-86 419.2548,-86 419.2548,-122"/>
<text text-anchor="middle" x="348" y="-99.8" font-family="Times,serif" font-size="14.00" fill="#000000">OrdersRoutingModule</text>
</g>
<!-- OrdersRoutingModule&#45;&gt;OrdersModule -->
<g id="edge4" class="edge">
<title>OrdersRoutingModule&#45;&gt;OrdersModule</title>
<path fill="none" stroke="#000000" d="M400.7795,-122.1061C400.7795,-122.1061 400.7795,-140.991 400.7795,-140.991"/>
<polygon fill="#000000" stroke="#000000" points="397.2795,-140.9909 400.7795,-150.991 404.2795,-140.991 397.2795,-140.9909"/>
</g>
<!-- SharedModule -->
<g id="node6" class="node">
<title>SharedModule</title>
<polygon fill="#8dd3c7" stroke="#000000" points="258.4231,-122 255.4231,-126 234.4231,-126 231.4231,-122 159.5769,-122 159.5769,-86 258.4231,-86 258.4231,-122"/>
<text text-anchor="middle" x="209" y="-99.8" font-family="Times,serif" font-size="14.00" fill="#000000">SharedModule</text>
</g>
<!-- SharedModule&#45;&gt;OrdersModule -->
<g id="edge5" class="edge">
<title>SharedModule&#45;&gt;OrdersModule</title>
<path fill="none" stroke="#000000" d="M209,-122.0225C209,-139.3734 209,-163 209,-163 209,-163 372.2812,-163 372.2812,-163"/>
<polygon fill="#000000" stroke="#000000" points="372.2812,-166.5001 382.2812,-163 372.2811,-159.5001 372.2812,-166.5001"/>
</g>
<!-- TemplatesModule -->
<g id="node7" class="node">
<title>TemplatesModule</title>
<polygon fill="#8dd3c7" stroke="#000000" points="141.8627,-122 138.8627,-126 117.8627,-126 114.8627,-122 24.1373,-122 24.1373,-86 141.8627,-86 141.8627,-122"/>
<text text-anchor="middle" x="83" y="-99.8" font-family="Times,serif" font-size="14.00" fill="#000000">TemplatesModule</text>
</g>
<!-- TemplatesModule&#45;&gt;OrdersModule -->
<g id="edge6" class="edge">
<title>TemplatesModule&#45;&gt;OrdersModule</title>
<path fill="none" stroke="#000000" d="M83,-122.2843C83,-143.3211 83,-175 83,-175 83,-175 372.2457,-175 372.2457,-175"/>
<polygon fill="#000000" stroke="#000000" points="372.2457,-178.5001 382.2457,-175 372.2456,-171.5001 372.2457,-178.5001"/>
</g>
</g>
</svg>
