<?xml version="1.0" encoding="UTF-8" standalone="no"?>
<!DOCTYPE svg PUBLIC "-//W3C//DTD SVG 1.1//EN"
 "http://www.w3.org/Graphics/SVG/1.1/DTD/svg11.dtd">
<!-- Generated by graphviz version 2.40.1 (20161225.0304)
 -->
<!-- Title: dependencies Pages: 1 -->
<svg width="681pt" height="211pt"
 viewBox="0.00 0.00 681.00 211.00" xmlns="http://www.w3.org/2000/svg" xmlns:xlink="http://www.w3.org/1999/xlink">
<g id="graph0" class="graph" transform="scale(1 1) rotate(0) translate(4 207)">
<title>dependencies</title>
<polygon fill="#ffffff" stroke="transparent" points="-4,4 -4,-207 677,-207 677,4 -4,4"/>
<text text-anchor="start" x="315.5091" y="-42.4" font-family="sans-serif" font-weight="bold" font-size="14.00" fill="#000000">Legend</text>
<polygon fill="#ffffb3" stroke="transparent" points="102.5,-10 102.5,-30 122.5,-30 122.5,-10 102.5,-10"/>
<text text-anchor="start" x="126.129" y="-15.4" font-family="sans-serif" font-size="14.00" fill="#000000"> &#160;Declarations</text>
<polygon fill="#8dd3c7" stroke="transparent" points="215.5,-10 215.5,-30 235.5,-30 235.5,-10 215.5,-10"/>
<text text-anchor="start" x="239.2251" y="-15.4" font-family="sans-serif" font-size="14.00" fill="#000000"> &#160;Module</text>
<polygon fill="#80b1d3" stroke="transparent" points="301.5,-10 301.5,-30 321.5,-30 321.5,-10 301.5,-10"/>
<text text-anchor="start" x="325.2812" y="-15.4" font-family="sans-serif" font-size="14.00" fill="#000000"> &#160;Bootstrap</text>
<polygon fill="#fdb462" stroke="transparent" points="398.5,-10 398.5,-30 418.5,-30 418.5,-10 398.5,-10"/>
<text text-anchor="start" x="422.1732" y="-15.4" font-family="sans-serif" font-size="14.00" fill="#000000"> &#160;Providers</text>
<polygon fill="#fb8072" stroke="transparent" points="494.5,-10 494.5,-30 514.5,-30 514.5,-10 494.5,-10"/>
<text text-anchor="start" x="518.2258" y="-15.4" font-family="sans-serif" font-size="14.00" fill="#000000"> &#160;Exports</text>
<g id="clust1" class="cluster">
<title>cluster_ClientsModule</title>
<polygon fill="none" stroke="#000000" stroke-dasharray="1,5" points="8,-70 8,-195 665,-195 665,-70 8,-70"/>
</g>
<g id="clust2" class="cluster">
<title>cluster_ClientsModule_declarations</title>
<polygon fill="none" stroke="#000000" points="184,-78 184,-130 657,-130 657,-78 184,-78"/>
</g>
<g id="clust6" class="cluster">
<title>cluster_ClientsModule_imports</title>
<polygon fill="none" stroke="#000000" points="16,-78 16,-130 176,-130 176,-78 16,-78"/>
</g>
<!-- AddClientComponent -->
<g id="node1" class="node">
<title>AddClientComponent</title>
<polygon fill="#ffffb3" stroke="#000000" points="648.6624,-122 509.3376,-122 509.3376,-86 648.6624,-86 648.6624,-122"/>
<text text-anchor="middle" x="579" y="-99.8" font-family="Times,serif" font-size="14.00" fill="#000000">AddClientComponent</text>
</g>
<!-- ClientsModule -->
<g id="node4" class="node">
<title>ClientsModule</title>
<polygon fill="#8dd3c7" stroke="#000000" points="391.7176,-187 388.7176,-191 367.7176,-191 364.7176,-187 292.2824,-187 292.2824,-151 391.7176,-151 391.7176,-187"/>
<text text-anchor="middle" x="342" y="-164.8" font-family="Times,serif" font-size="14.00" fill="#000000">ClientsModule</text>
</g>
<!-- AddClientComponent&#45;&gt;ClientsModule -->
<g id="edge1" class="edge">
<title>AddClientComponent&#45;&gt;ClientsModule</title>
<path fill="none" stroke="#000000" d="M579,-122.1061C579,-141.3391 579,-169 579,-169 579,-169 401.683,-169 401.683,-169"/>
<polygon fill="#000000" stroke="#000000" points="401.683,-165.5001 391.683,-169 401.6829,-172.5001 401.683,-165.5001"/>
</g>
<!-- EditClientComponent -->
<g id="node2" class="node">
<title>EditClientComponent</title>
<polygon fill="#ffffb3" stroke="#000000" points="491.3892,-122 352.6108,-122 352.6108,-86 491.3892,-86 491.3892,-122"/>
<text text-anchor="middle" x="422" y="-99.8" font-family="Times,serif" font-size="14.00" fill="#000000">EditClientComponent</text>
</g>
<!-- EditClientComponent&#45;&gt;ClientsModule -->
<g id="edge2" class="edge">
<title>EditClientComponent&#45;&gt;ClientsModule</title>
<path fill="none" stroke="#000000" d="M372.0821,-122.1061C372.0821,-122.1061 372.0821,-140.991 372.0821,-140.991"/>
<polygon fill="#000000" stroke="#000000" points="368.5821,-140.9909 372.0821,-150.991 375.5821,-140.991 368.5821,-140.9909"/>
</g>
<!-- ListClientsComponent -->
<g id="node3" class="node">
<title>ListClientsComponent</title>
<polygon fill="#ffffb3" stroke="#000000" points="334.2786,-122 191.7214,-122 191.7214,-86 334.2786,-86 334.2786,-122"/>
<text text-anchor="middle" x="263" y="-99.8" font-family="Times,serif" font-size="14.00" fill="#000000">ListClientsComponent</text>
</g>
<!-- ListClientsComponent&#45;&gt;ClientsModule -->
<g id="edge3" class="edge">
<title>ListClientsComponent&#45;&gt;ClientsModule</title>
<path fill="none" stroke="#000000" d="M313.3903,-122.1061C313.3903,-122.1061 313.3903,-140.991 313.3903,-140.991"/>
<polygon fill="#000000" stroke="#000000" points="309.8903,-140.9909 313.3903,-150.991 316.8903,-140.991 309.8903,-140.9909"/>
</g>
<!-- ClientsRoutingModule -->
<g id="node5" class="node">
<title>ClientsRoutingModule</title>
<polygon fill="#8dd3c7" stroke="#000000" points="168.3356,-122 165.3356,-126 144.3356,-126 141.3356,-122 23.6644,-122 23.6644,-86 168.3356,-86 168.3356,-122"/>
<text text-anchor="middle" x="96" y="-99.8" font-family="Times,serif" font-size="14.00" fill="#000000">ClientsRoutingModule</text>
</g>
<!-- ClientsRoutingModule&#45;&gt;ClientsModule -->
<g id="edge4" class="edge">
<title>ClientsRoutingModule&#45;&gt;ClientsModule</title>
<path fill="none" stroke="#000000" d="M96,-122.1061C96,-141.3391 96,-169 96,-169 96,-169 282.2182,-169 282.2182,-169"/>
<polygon fill="#000000" stroke="#000000" points="282.2183,-172.5001 292.2182,-169 282.2182,-165.5001 282.2183,-172.5001"/>
</g>
</g>
</svg>
