<?xml version="1.0" encoding="UTF-8" standalone="no"?>
<!DOCTYPE svg PUBLIC "-//W3C//DTD SVG 1.1//EN"
 "http://www.w3.org/Graphics/SVG/1.1/DTD/svg11.dtd">
<!-- Generated by graphviz version 2.40.1 (20161225.0304)
 -->
<!-- Title: dependencies Pages: 1 -->
<svg width="933pt" height="211pt"
 viewBox="0.00 0.00 933.00 211.00" xmlns="http://www.w3.org/2000/svg" xmlns:xlink="http://www.w3.org/1999/xlink">
<g id="graph0" class="graph" transform="scale(1 1) rotate(0) translate(4 207)">
<title>dependencies</title>
<polygon fill="#ffffff" stroke="transparent" points="-4,4 -4,-207 929,-207 929,4 -4,4"/>
<text text-anchor="start" x="441.5091" y="-42.4" font-family="sans-serif" font-weight="bold" font-size="14.00" fill="#000000">Legend</text>
<polygon fill="#ffffb3" stroke="transparent" points="228.5,-10 228.5,-30 248.5,-30 248.5,-10 228.5,-10"/>
<text text-anchor="start" x="252.129" y="-15.4" font-family="sans-serif" font-size="14.00" fill="#000000"> &#160;Declarations</text>
<polygon fill="#8dd3c7" stroke="transparent" points="341.5,-10 341.5,-30 361.5,-30 361.5,-10 341.5,-10"/>
<text text-anchor="start" x="365.2251" y="-15.4" font-family="sans-serif" font-size="14.00" fill="#000000"> &#160;Module</text>
<polygon fill="#80b1d3" stroke="transparent" points="427.5,-10 427.5,-30 447.5,-30 447.5,-10 427.5,-10"/>
<text text-anchor="start" x="451.2812" y="-15.4" font-family="sans-serif" font-size="14.00" fill="#000000"> &#160;Bootstrap</text>
<polygon fill="#fdb462" stroke="transparent" points="524.5,-10 524.5,-30 544.5,-30 544.5,-10 524.5,-10"/>
<text text-anchor="start" x="548.1732" y="-15.4" font-family="sans-serif" font-size="14.00" fill="#000000"> &#160;Providers</text>
<polygon fill="#fb8072" stroke="transparent" points="620.5,-10 620.5,-30 640.5,-30 640.5,-10 620.5,-10"/>
<text text-anchor="start" x="644.2258" y="-15.4" font-family="sans-serif" font-size="14.00" fill="#000000"> &#160;Exports</text>
<g id="clust1" class="cluster">
<title>cluster_ClientsModule</title>
<polygon fill="none" stroke="#000000" stroke-dasharray="1,5" points="8,-70 8,-195 917,-195 917,-70 8,-70"/>
</g>
<g id="clust2" class="cluster">
<title>cluster_ClientsModule_declarations</title>
<polygon fill="none" stroke="#000000" points="436,-78 436,-130 909,-130 909,-78 436,-78"/>
</g>
<g id="clust6" class="cluster">
<title>cluster_ClientsModule_imports</title>
<polygon fill="none" stroke="#000000" points="16,-78 16,-130 428,-130 428,-78 16,-78"/>
</g>
<!-- AddClientComponent -->
<g id="node1" class="node">
<title>AddClientComponent</title>
<polygon fill="#ffffb3" stroke="#000000" points="900.6624,-122 761.3376,-122 761.3376,-86 900.6624,-86 900.6624,-122"/>
<text text-anchor="middle" x="831" y="-99.8" font-family="Times,serif" font-size="14.00" fill="#000000">AddClientComponent</text>
</g>
<!-- ClientsModule -->
<g id="node4" class="node">
<title>ClientsModule</title>
<polygon fill="#8dd3c7" stroke="#000000" points="480.7176,-187 477.7176,-191 456.7176,-191 453.7176,-187 381.2824,-187 381.2824,-151 480.7176,-151 480.7176,-187"/>
<text text-anchor="middle" x="431" y="-164.8" font-family="Times,serif" font-size="14.00" fill="#000000">ClientsModule</text>
</g>
<!-- AddClientComponent&#45;&gt;ClientsModule -->
<g id="edge1" class="edge">
<title>AddClientComponent&#45;&gt;ClientsModule</title>
<path fill="none" stroke="#000000" d="M831,-122.2843C831,-143.3211 831,-175 831,-175 831,-175 490.8515,-175 490.8515,-175"/>
<polygon fill="#000000" stroke="#000000" points="490.8515,-171.5001 480.8515,-175 490.8515,-178.5001 490.8515,-171.5001"/>
</g>
<!-- EditClientComponent -->
<g id="node2" class="node">
<title>EditClientComponent</title>
<polygon fill="#ffffb3" stroke="#000000" points="743.3892,-122 604.6108,-122 604.6108,-86 743.3892,-86 743.3892,-122"/>
<text text-anchor="middle" x="674" y="-99.8" font-family="Times,serif" font-size="14.00" fill="#000000">EditClientComponent</text>
</g>
<!-- EditClientComponent&#45;&gt;ClientsModule -->
<g id="edge2" class="edge">
<title>EditClientComponent&#45;&gt;ClientsModule</title>
<path fill="none" stroke="#000000" d="M674,-122.0225C674,-139.3734 674,-163 674,-163 674,-163 490.7611,-163 490.7611,-163"/>
<polygon fill="#000000" stroke="#000000" points="490.7611,-159.5001 480.7611,-163 490.761,-166.5001 490.7611,-159.5001"/>
</g>
<!-- ListClientsComponent -->
<g id="node3" class="node">
<title>ListClientsComponent</title>
<polygon fill="#ffffb3" stroke="#000000" points="586.2786,-122 443.7214,-122 443.7214,-86 586.2786,-86 586.2786,-122"/>
<text text-anchor="middle" x="515" y="-99.8" font-family="Times,serif" font-size="14.00" fill="#000000">ListClientsComponent</text>
</g>
<!-- ListClientsComponent&#45;&gt;ClientsModule -->
<g id="edge3" class="edge">
<title>ListClientsComponent&#45;&gt;ClientsModule</title>
<path fill="none" stroke="#000000" d="M462.1098,-122.1061C462.1098,-122.1061 462.1098,-140.991 462.1098,-140.991"/>
<polygon fill="#000000" stroke="#000000" points="458.6098,-140.9909 462.1098,-150.991 465.6098,-140.991 458.6098,-140.9909"/>
</g>
<!-- ClientsRoutingModule -->
<g id="node5" class="node">
<title>ClientsRoutingModule</title>
<polygon fill="#8dd3c7" stroke="#000000" points="420.3356,-122 417.3356,-126 396.3356,-126 393.3356,-122 275.6644,-122 275.6644,-86 420.3356,-86 420.3356,-122"/>
<text text-anchor="middle" x="348" y="-99.8" font-family="Times,serif" font-size="14.00" fill="#000000">ClientsRoutingModule</text>
</g>
<!-- ClientsRoutingModule&#45;&gt;ClientsModule -->
<g id="edge4" class="edge">
<title>ClientsRoutingModule&#45;&gt;ClientsModule</title>
<path fill="none" stroke="#000000" d="M400.7795,-122.1061C400.7795,-122.1061 400.7795,-140.991 400.7795,-140.991"/>
<polygon fill="#000000" stroke="#000000" points="397.2795,-140.9909 400.7795,-150.991 404.2795,-140.991 397.2795,-140.9909"/>
</g>
<!-- SharedModule -->
<g id="node6" class="node">
<title>SharedModule</title>
<polygon fill="#8dd3c7" stroke="#000000" points="258.4231,-122 255.4231,-126 234.4231,-126 231.4231,-122 159.5769,-122 159.5769,-86 258.4231,-86 258.4231,-122"/>
<text text-anchor="middle" x="209" y="-99.8" font-family="Times,serif" font-size="14.00" fill="#000000">SharedModule</text>
</g>
<!-- SharedModule&#45;&gt;ClientsModule -->
<g id="edge5" class="edge">
<title>SharedModule&#45;&gt;ClientsModule</title>
<path fill="none" stroke="#000000" d="M209,-122.0225C209,-139.3734 209,-163 209,-163 209,-163 371.1789,-163 371.1789,-163"/>
<polygon fill="#000000" stroke="#000000" points="371.1789,-166.5001 381.1789,-163 371.1788,-159.5001 371.1789,-166.5001"/>
</g>
<!-- TemplatesModule -->
<g id="node7" class="node">
<title>TemplatesModule</title>
<polygon fill="#8dd3c7" stroke="#000000" points="141.8627,-122 138.8627,-126 117.8627,-126 114.8627,-122 24.1373,-122 24.1373,-86 141.8627,-86 141.8627,-122"/>
<text text-anchor="middle" x="83" y="-99.8" font-family="Times,serif" font-size="14.00" fill="#000000">TemplatesModule</text>
</g>
<!-- TemplatesModule&#45;&gt;ClientsModule -->
<g id="edge6" class="edge">
<title>TemplatesModule&#45;&gt;ClientsModule</title>
<path fill="none" stroke="#000000" d="M83,-122.2843C83,-143.3211 83,-175 83,-175 83,-175 371.1401,-175 371.1401,-175"/>
<polygon fill="#000000" stroke="#000000" points="371.1401,-178.5001 381.1401,-175 371.14,-171.5001 371.1401,-178.5001"/>
</g>
</g>
</svg>
