<?xml version="1.0" encoding="UTF-8" standalone="no"?>
<!DOCTYPE svg PUBLIC "-//W3C//DTD SVG 1.1//EN"
 "http://www.w3.org/Graphics/SVG/1.1/DTD/svg11.dtd">
<!-- Generated by graphviz version 2.40.1 (20161225.0304)
 -->
<!-- Title: dependencies Pages: 1 -->
<svg width="1608pt" height="360pt"
 viewBox="0.00 0.00 1608.00 360.00" xmlns="http://www.w3.org/2000/svg" xmlns:xlink="http://www.w3.org/1999/xlink">
<g id="graph0" class="graph" transform="scale(1 1) rotate(0) translate(4 356)">
<title>dependencies</title>
<polygon fill="#ffffff" stroke="transparent" points="-4,4 -4,-356 1604,-356 1604,4 -4,4"/>
<text text-anchor="start" x="779.0091" y="-42.4" font-family="sans-serif" font-weight="bold" font-size="14.00" fill="#000000">Legend</text>
<polygon fill="#ffffb3" stroke="transparent" points="566,-10 566,-30 586,-30 586,-10 566,-10"/>
<text text-anchor="start" x="589.629" y="-15.4" font-family="sans-serif" font-size="14.00" fill="#000000"> &#160;Declarations</text>
<polygon fill="#8dd3c7" stroke="transparent" points="679,-10 679,-30 699,-30 699,-10 679,-10"/>
<text text-anchor="start" x="702.7251" y="-15.4" font-family="sans-serif" font-size="14.00" fill="#000000"> &#160;Module</text>
<polygon fill="#80b1d3" stroke="transparent" points="765,-10 765,-30 785,-30 785,-10 765,-10"/>
<text text-anchor="start" x="788.7812" y="-15.4" font-family="sans-serif" font-size="14.00" fill="#000000"> &#160;Bootstrap</text>
<polygon fill="#fdb462" stroke="transparent" points="862,-10 862,-30 882,-30 882,-10 862,-10"/>
<text text-anchor="start" x="885.6732" y="-15.4" font-family="sans-serif" font-size="14.00" fill="#000000"> &#160;Providers</text>
<polygon fill="#fb8072" stroke="transparent" points="958,-10 958,-30 978,-30 978,-10 958,-10"/>
<text text-anchor="start" x="981.7258" y="-15.4" font-family="sans-serif" font-size="14.00" fill="#000000"> &#160;Exports</text>
<g id="clust1" class="cluster">
<title>cluster_AppModule</title>
<polygon fill="none" stroke="#000000" stroke-dasharray="1,5" points="390,-146 390,-344 1592,-344 1592,-146 390,-146"/>
</g>
<g id="clust2" class="cluster">
<title>cluster_AppModule_declarations</title>
<polygon fill="none" stroke="#000000" points="1462,-154 1462,-206 1584,-206 1584,-154 1462,-154"/>
</g>
<g id="clust4" class="cluster">
<title>cluster_AppModule_imports</title>
<polygon fill="none" stroke="#000000" points="398,-154 398,-206 1454,-206 1454,-154 398,-154"/>
</g>
<g id="clust6" class="cluster">
<title>cluster_AppModule_bootstrap</title>
<polygon fill="none" stroke="#000000" points="927,-284 927,-336 1051,-336 1051,-284 927,-284"/>
</g>
<g id="clust14" class="cluster">
<title>cluster_ClientsModule</title>
<polygon fill="none" stroke="#000000" stroke-dasharray="1,5" points="664,-70 664,-138 840,-138 840,-70 664,-70"/>
</g>
<g id="clust16" class="cluster">
<title>cluster_ClientsModule_imports</title>
<polygon fill="none" stroke="#000000" points="672,-78 672,-130 832,-130 832,-78 672,-78"/>
</g>
<g id="clust38" class="cluster">
<title>cluster_LoginModule</title>
<polygon fill="none" stroke="#000000" stroke-dasharray="1,5" points="848,-70 848,-138 1018,-138 1018,-70 848,-70"/>
</g>
<g id="clust40" class="cluster">
<title>cluster_LoginModule_imports</title>
<polygon fill="none" stroke="#000000" points="856,-78 856,-130 1010,-130 1010,-78 856,-78"/>
</g>
<g id="clust50" class="cluster">
<title>cluster_OrdersModule</title>
<polygon fill="none" stroke="#000000" stroke-dasharray="1,5" points="1026,-70 1026,-138 1200,-138 1200,-70 1026,-70"/>
</g>
<g id="clust52" class="cluster">
<title>cluster_OrdersModule_imports</title>
<polygon fill="none" stroke="#000000" points="1034,-78 1034,-130 1192,-130 1192,-78 1034,-78"/>
</g>
<g id="clust62" class="cluster">
<title>cluster_PageNotFoundModule</title>
<polygon fill="none" stroke="#000000" stroke-dasharray="1,5" points="1208,-70 1208,-138 1428,-138 1428,-70 1208,-70"/>
</g>
<g id="clust64" class="cluster">
<title>cluster_PageNotFoundModule_imports</title>
<polygon fill="none" stroke="#000000" points="1216,-78 1216,-130 1420,-130 1420,-78 1216,-78"/>
</g>
<g id="clust92" class="cluster">
<title>cluster_UiModule</title>
<polygon fill="none" stroke="#000000" stroke-dasharray="1,5" points="8,-70 8,-138 656,-138 656,-70 8,-70"/>
</g>
<g id="clust93" class="cluster">
<title>cluster_UiModule_declarations</title>
<polygon fill="none" stroke="#000000" points="138,-78 138,-130 648,-130 648,-78 138,-78"/>
</g>
<g id="clust99" class="cluster">
<title>cluster_UiModule_exports</title>
<polygon fill="none" stroke="#000000" points="16,-78 16,-130 130,-130 130,-78 16,-78"/>
</g>
<!-- AppComponent -->
<g id="node1" class="node">
<title>AppComponent</title>
<polygon fill="#ffffb3" stroke="#000000" points="1575.9399,-198 1470.0601,-198 1470.0601,-162 1575.9399,-162 1575.9399,-198"/>
<text text-anchor="middle" x="1523" y="-175.8" font-family="Times,serif" font-size="14.00" fill="#000000">AppComponent</text>
</g>
<!-- AppModule -->
<g id="node2" class="node">
<title>AppModule</title>
<polygon fill="#8dd3c7" stroke="#000000" points="1030.6571,-263 1027.6571,-267 1006.6571,-267 1003.6571,-263 947.3429,-263 947.3429,-227 1030.6571,-227 1030.6571,-263"/>
<text text-anchor="middle" x="989" y="-240.8" font-family="Times,serif" font-size="14.00" fill="#000000">AppModule</text>
</g>
<!-- AppComponent&#45;&gt;AppModule -->
<g id="edge1" class="edge">
<title>AppComponent&#45;&gt;AppModule</title>
<path fill="none" stroke="#000000" d="M1533.5439,-198.3228C1533.5439,-221.6602 1533.5439,-259 1533.5439,-259 1533.5439,-259 1040.8253,-259 1040.8253,-259"/>
<polygon fill="#000000" stroke="#000000" points="1040.8253,-255.5001 1030.8253,-259 1040.8252,-262.5001 1040.8253,-255.5001"/>
</g>
<!-- AppComponent&#45;&gt;AppModule -->
<g id="edge12" class="edge">
<title>AppComponent&#45;&gt;AppModule</title>
<path fill="none" stroke="#000000" d="M1512.4561,-198.0109C1512.4561,-220.4852 1512.4561,-256 1512.4561,-256 1512.4561,-256 1040.9518,-256 1040.9518,-256"/>
<polygon fill="#000000" stroke="#000000" points="1040.9518,-252.5001 1030.9518,-256 1040.9517,-259.5001 1040.9518,-252.5001"/>
</g>
<!-- AppComponent&#45;&gt;AppModule -->
<g id="edge15" class="edge">
<title>AppComponent&#45;&gt;AppModule</title>
<path fill="none" stroke="#000000" d="M1554.6317,-198.3802C1554.6317,-222.2785 1554.6317,-261 1554.6317,-261 1554.6317,-261 1041.0522,-261 1041.0522,-261"/>
<polygon fill="#000000" stroke="#000000" points="1041.0522,-257.5001 1031.0522,-261 1041.0522,-264.5001 1041.0522,-257.5001"/>
</g>
<!-- AppComponent&#45;&gt;AppModule -->
<g id="edge26" class="edge">
<title>AppComponent&#45;&gt;AppModule</title>
<path fill="none" stroke="#000000" d="M1491.3683,-198.2921C1491.3683,-220.2057 1491.3683,-254 1491.3683,-254 1491.3683,-254 1040.9676,-254 1040.9676,-254"/>
<polygon fill="#000000" stroke="#000000" points="1040.9676,-250.5001 1030.9676,-254 1040.9675,-257.5001 1040.9676,-250.5001"/>
</g>
<!-- AppComponent  -->
<g id="node12" class="node">
<title>AppComponent </title>
<polygon fill="#80b1d3" stroke="#000000" points="1043.439,-328 934.561,-328 934.561,-292 1043.439,-292 1043.439,-328"/>
<text text-anchor="middle" x="989" y="-305.8" font-family="Times,serif" font-size="14.00" fill="#000000">AppComponent </text>
</g>
<!-- AppModule&#45;&gt;AppComponent  -->
<g id="edge11" class="edge">
<title>AppModule&#45;&gt;AppComponent </title>
<path fill="none" stroke="#000000" stroke-dasharray="1,5" d="M963.9031,-263.1061C963.9031,-263.1061 963.9031,-281.991 963.9031,-281.991"/>
<polygon fill="#000000" stroke="#000000" points="960.4032,-281.9909 963.9031,-291.991 967.4032,-281.991 960.4032,-281.9909"/>
</g>
<!-- AppModule&#45;&gt;AppComponent  -->
<g id="edge14" class="edge">
<title>AppModule&#45;&gt;AppComponent </title>
<path fill="none" stroke="#000000" stroke-dasharray="1,5" d="M997.3656,-263.1061C997.3656,-263.1061 997.3656,-281.991 997.3656,-281.991"/>
<polygon fill="#000000" stroke="#000000" points="993.8657,-281.9909 997.3656,-291.991 1000.8657,-281.991 993.8657,-281.9909"/>
</g>
<!-- AppModule&#45;&gt;AppComponent  -->
<g id="edge25" class="edge">
<title>AppModule&#45;&gt;AppComponent </title>
<path fill="none" stroke="#000000" stroke-dasharray="1,5" d="M1014.0969,-263.1061C1014.0969,-263.1061 1014.0969,-281.991 1014.0969,-281.991"/>
<polygon fill="#000000" stroke="#000000" points="1010.597,-281.9909 1014.0969,-291.991 1017.597,-281.991 1010.597,-281.9909"/>
</g>
<!-- AppModule&#45;&gt;AppComponent  -->
<g id="edge36" class="edge">
<title>AppModule&#45;&gt;AppComponent </title>
<path fill="none" stroke="#000000" stroke-dasharray="1,5" d="M980.6344,-263.1061C980.6344,-263.1061 980.6344,-281.991 980.6344,-281.991"/>
<polygon fill="#000000" stroke="#000000" points="977.1345,-281.9909 980.6344,-291.991 984.1345,-281.991 977.1345,-281.9909"/>
</g>
<!-- AppRoutingModule -->
<g id="node3" class="node">
<title>AppRoutingModule</title>
<polygon fill="#8dd3c7" stroke="#000000" points="1446.2744,-198 1443.2744,-202 1422.2744,-202 1419.2744,-198 1317.7256,-198 1317.7256,-162 1446.2744,-162 1446.2744,-198"/>
<text text-anchor="middle" x="1382" y="-175.8" font-family="Times,serif" font-size="14.00" fill="#000000">AppRoutingModule</text>
</g>
<!-- AppRoutingModule&#45;&gt;AppModule -->
<g id="edge2" class="edge">
<title>AppRoutingModule&#45;&gt;AppModule</title>
<path fill="none" stroke="#000000" d="M1420.6323,-198.2843C1420.6323,-219.3211 1420.6323,-251 1420.6323,-251 1420.6323,-251 1040.7789,-251 1040.7789,-251"/>
<polygon fill="#000000" stroke="#000000" points="1040.7789,-247.5001 1030.7789,-251 1040.7789,-254.5001 1040.7789,-247.5001"/>
</g>
<!-- AppRoutingModule&#45;&gt;AppModule -->
<g id="edge13" class="edge">
<title>AppRoutingModule&#45;&gt;AppModule</title>
<path fill="none" stroke="#000000" d="M1369.1226,-198.308C1369.1226,-218.1455 1369.1226,-247 1369.1226,-247 1369.1226,-247 1040.7671,-247 1040.7671,-247"/>
<polygon fill="#000000" stroke="#000000" points="1040.7672,-243.5001 1030.7671,-247 1040.7671,-250.5001 1040.7672,-243.5001"/>
</g>
<!-- AppRoutingModule&#45;&gt;AppModule -->
<g id="edge16" class="edge">
<title>AppRoutingModule&#45;&gt;AppModule</title>
<path fill="none" stroke="#000000" d="M1343.3677,-198.1686C1343.3677,-217.0898 1343.3677,-244 1343.3677,-244 1343.3677,-244 1040.6925,-244 1040.6925,-244"/>
<polygon fill="#000000" stroke="#000000" points="1040.6926,-240.5001 1030.6925,-244 1040.6925,-247.5001 1040.6926,-240.5001"/>
</g>
<!-- AppRoutingModule&#45;&gt;AppModule -->
<g id="edge27" class="edge">
<title>AppRoutingModule&#45;&gt;AppModule</title>
<path fill="none" stroke="#000000" d="M1394.8774,-198.1289C1394.8774,-218.5724 1394.8774,-249 1394.8774,-249 1394.8774,-249 1040.9073,-249 1040.9073,-249"/>
<polygon fill="#000000" stroke="#000000" points="1040.9073,-245.5001 1030.9073,-249 1040.9073,-252.5001 1040.9073,-245.5001"/>
</g>
<!-- ClientsModule -->
<g id="node4" class="node">
<title>ClientsModule</title>
<polygon fill="#8dd3c7" stroke="#000000" points="699.7176,-198 696.7176,-202 675.7176,-202 672.7176,-198 600.2824,-198 600.2824,-162 699.7176,-162 699.7176,-198"/>
<text text-anchor="middle" x="650" y="-175.8" font-family="Times,serif" font-size="14.00" fill="#000000">ClientsModule</text>
</g>
<!-- ClientsModule&#45;&gt;AppModule -->
<g id="edge3" class="edge">
<title>ClientsModule&#45;&gt;AppModule</title>
<path fill="none" stroke="#000000" d="M674.8044,-198.2222C674.8044,-216.8285 674.8044,-243 674.8044,-243 674.8044,-243 937.2772,-243 937.2772,-243"/>
<polygon fill="#000000" stroke="#000000" points="937.2773,-246.5001 947.2772,-243 937.2772,-239.5001 937.2773,-246.5001"/>
</g>
<!-- ClientsModule&#45;&gt;AppModule -->
<g id="edge17" class="edge">
<title>ClientsModule&#45;&gt;AppModule</title>
<path fill="none" stroke="#000000" d="M650,-198.1061C650,-217.3391 650,-245 650,-245 650,-245 937.0919,-245 937.0919,-245"/>
<polygon fill="#000000" stroke="#000000" points="937.092,-248.5001 947.0919,-245 937.0919,-241.5001 937.092,-248.5001"/>
</g>
<!-- ClientsModule&#45;&gt;AppModule -->
<g id="edge28" class="edge">
<title>ClientsModule&#45;&gt;AppModule</title>
<path fill="none" stroke="#000000" d="M625.1957,-198.2228C625.1957,-218.3652 625.1957,-248 625.1957,-248 625.1957,-248 937.267,-248 937.267,-248"/>
<polygon fill="#000000" stroke="#000000" points="937.2671,-251.5001 947.267,-248 937.267,-244.5001 937.2671,-251.5001"/>
</g>
<!-- CoreModule -->
<g id="node5" class="node">
<title>CoreModule</title>
<polygon fill="#8dd3c7" stroke="#000000" points="1138.2619,-198 1135.2619,-202 1114.2619,-202 1111.2619,-198 1051.7381,-198 1051.7381,-162 1138.2619,-162 1138.2619,-198"/>
<text text-anchor="middle" x="1095" y="-175.8" font-family="Times,serif" font-size="14.00" fill="#000000">CoreModule</text>
</g>
<!-- CoreModule&#45;&gt;AppModule -->
<g id="edge4" class="edge">
<title>CoreModule&#45;&gt;AppModule</title>
<path fill="none" stroke="#000000" d="M1073.3096,-198.0511C1073.3096,-212.373 1073.3096,-230 1073.3096,-230 1073.3096,-230 1040.6608,-230 1040.6608,-230"/>
<polygon fill="#000000" stroke="#000000" points="1040.6608,-226.5001 1030.6608,-230 1040.6608,-233.5001 1040.6608,-226.5001"/>
</g>
<!-- CoreModule&#45;&gt;AppModule -->
<g id="edge18" class="edge">
<title>CoreModule&#45;&gt;AppModule</title>
<path fill="none" stroke="#000000" d="M1095,-198.1871C1095,-213.1824 1095,-232 1095,-232 1095,-232 1040.894,-232 1040.894,-232"/>
<polygon fill="#000000" stroke="#000000" points="1040.894,-228.5001 1030.894,-232 1040.894,-235.5001 1040.894,-228.5001"/>
</g>
<!-- CoreModule&#45;&gt;AppModule -->
<g id="edge29" class="edge">
<title>CoreModule&#45;&gt;AppModule</title>
<path fill="none" stroke="#000000" d="M1116.6904,-198.0091C1116.6904,-214.0494 1116.6904,-235 1116.6904,-235 1116.6904,-235 1040.8106,-235 1040.8106,-235"/>
<polygon fill="#000000" stroke="#000000" points="1040.8106,-231.5001 1030.8106,-235 1040.8106,-238.5001 1040.8106,-231.5001"/>
</g>
<!-- IconsModule -->
<g id="node6" class="node">
<title>IconsModule</title>
<polygon fill="#8dd3c7" stroke="#000000" points="1033.8697,-198 1030.8697,-202 1009.8697,-202 1006.8697,-198 944.1303,-198 944.1303,-162 1033.8697,-162 1033.8697,-198"/>
<text text-anchor="middle" x="989" y="-175.8" font-family="Times,serif" font-size="14.00" fill="#000000">IconsModule</text>
</g>
<!-- IconsModule&#45;&gt;AppModule -->
<g id="edge5" class="edge">
<title>IconsModule&#45;&gt;AppModule</title>
<path fill="none" stroke="#000000" d="M1009.9141,-198.1061C1009.9141,-198.1061 1009.9141,-216.991 1009.9141,-216.991"/>
<polygon fill="#000000" stroke="#000000" points="1006.4142,-216.9909 1009.9141,-226.991 1013.4142,-216.991 1006.4142,-216.9909"/>
</g>
<!-- IconsModule&#45;&gt;AppModule -->
<g id="edge19" class="edge">
<title>IconsModule&#45;&gt;AppModule</title>
<path fill="none" stroke="#000000" d="M968.0859,-198.1061C968.0859,-198.1061 968.0859,-216.991 968.0859,-216.991"/>
<polygon fill="#000000" stroke="#000000" points="964.586,-216.9909 968.0859,-226.991 971.586,-216.991 964.586,-216.9909"/>
</g>
<!-- IconsModule&#45;&gt;AppModule -->
<g id="edge30" class="edge">
<title>IconsModule&#45;&gt;AppModule</title>
<path fill="none" stroke="#000000" d="M989,-198.1061C989,-198.1061 989,-216.991 989,-216.991"/>
<polygon fill="#000000" stroke="#000000" points="985.5001,-216.9909 989,-226.991 992.5001,-216.991 985.5001,-216.9909"/>
</g>
<!-- LoginModule -->
<g id="node7" class="node">
<title>LoginModule</title>
<polygon fill="#8dd3c7" stroke="#000000" points="810.493,-198 807.493,-202 786.493,-202 783.493,-198 717.507,-198 717.507,-162 810.493,-162 810.493,-198"/>
<text text-anchor="middle" x="764" y="-175.8" font-family="Times,serif" font-size="14.00" fill="#000000">LoginModule</text>
</g>
<!-- LoginModule&#45;&gt;AppModule -->
<g id="edge6" class="edge">
<title>LoginModule&#45;&gt;AppModule</title>
<path fill="none" stroke="#000000" d="M787.2483,-198.027C787.2483,-214.3976 787.2483,-236 787.2483,-236 787.2483,-236 937.1969,-236 937.1969,-236"/>
<polygon fill="#000000" stroke="#000000" points="937.1969,-239.5001 947.1969,-236 937.1969,-232.5001 937.1969,-239.5001"/>
</g>
<!-- LoginModule&#45;&gt;AppModule -->
<g id="edge20" class="edge">
<title>LoginModule&#45;&gt;AppModule</title>
<path fill="none" stroke="#000000" d="M764,-198.0225C764,-215.3734 764,-239 764,-239 764,-239 937.2065,-239 937.2065,-239"/>
<polygon fill="#000000" stroke="#000000" points="937.2066,-242.5001 947.2065,-239 937.2065,-235.5001 937.2066,-242.5001"/>
</g>
<!-- LoginModule&#45;&gt;AppModule -->
<g id="edge31" class="edge">
<title>LoginModule&#45;&gt;AppModule</title>
<path fill="none" stroke="#000000" d="M740.7518,-198.302C740.7518,-216.2699 740.7518,-241 740.7518,-241 740.7518,-241 937.1688,-241 937.1688,-241"/>
<polygon fill="#000000" stroke="#000000" points="937.1688,-244.5001 947.1688,-241 937.1688,-237.5001 937.1688,-244.5001"/>
</g>
<!-- OrdersModule -->
<g id="node8" class="node">
<title>OrdersModule</title>
<polygon fill="#8dd3c7" stroke="#000000" points="925.6375,-198 922.6375,-202 901.6375,-202 898.6375,-198 828.3625,-198 828.3625,-162 925.6375,-162 925.6375,-198"/>
<text text-anchor="middle" x="877" y="-175.8" font-family="Times,serif" font-size="14.00" fill="#000000">OrdersModule</text>
</g>
<!-- OrdersModule&#45;&gt;AppModule -->
<g id="edge7" class="edge">
<title>OrdersModule&#45;&gt;AppModule</title>
<path fill="none" stroke="#000000" d="M877,-198.1871C877,-213.1824 877,-232 877,-232 877,-232 937.2953,-232 937.2953,-232"/>
<polygon fill="#000000" stroke="#000000" points="937.2954,-235.5001 947.2953,-232 937.2953,-228.5001 937.2954,-235.5001"/>
</g>
<!-- OrdersModule&#45;&gt;AppModule -->
<g id="edge21" class="edge">
<title>OrdersModule&#45;&gt;AppModule</title>
<path fill="none" stroke="#000000" d="M852.5908,-198.2819C852.5908,-213.9478 852.5908,-234 852.5908,-234 852.5908,-234 937.3315,-234 937.3315,-234"/>
<polygon fill="#000000" stroke="#000000" points="937.3316,-237.5001 947.3315,-234 937.3315,-230.5001 937.3316,-237.5001"/>
</g>
<!-- OrdersModule&#45;&gt;AppModule -->
<g id="edge32" class="edge">
<title>OrdersModule&#45;&gt;AppModule</title>
<path fill="none" stroke="#000000" d="M901.4092,-198.0511C901.4092,-212.373 901.4092,-230 901.4092,-230 901.4092,-230 937.2568,-230 937.2568,-230"/>
<polygon fill="#000000" stroke="#000000" points="937.2569,-233.5001 947.2568,-230 937.2568,-226.5001 937.2569,-233.5001"/>
</g>
<!-- PageNotFoundModule -->
<g id="node9" class="node">
<title>PageNotFoundModule</title>
<polygon fill="#8dd3c7" stroke="#000000" points="1299.5421,-198 1296.5421,-202 1275.5421,-202 1272.5421,-198 1156.4579,-198 1156.4579,-162 1299.5421,-162 1299.5421,-198"/>
<text text-anchor="middle" x="1228" y="-175.8" font-family="Times,serif" font-size="14.00" fill="#000000">PageNotFoundModule</text>
</g>
<!-- PageNotFoundModule&#45;&gt;AppModule -->
<g id="edge8" class="edge">
<title>PageNotFoundModule&#45;&gt;AppModule</title>
<path fill="none" stroke="#000000" d="M1263.8854,-198.2667C1263.8854,-216.5552 1263.8854,-242 1263.8854,-242 1263.8854,-242 1040.7492,-242 1040.7492,-242"/>
<polygon fill="#000000" stroke="#000000" points="1040.7492,-238.5001 1030.7492,-242 1040.7491,-245.5001 1040.7492,-238.5001"/>
</g>
<!-- PageNotFoundModule&#45;&gt;AppModule -->
<g id="edge22" class="edge">
<title>PageNotFoundModule&#45;&gt;AppModule</title>
<path fill="none" stroke="#000000" d="M1228,-198.0225C1228,-215.3734 1228,-239 1228,-239 1228,-239 1040.9041,-239 1040.9041,-239"/>
<polygon fill="#000000" stroke="#000000" points="1040.9041,-235.5001 1030.9041,-239 1040.9041,-242.5001 1040.9041,-235.5001"/>
</g>
<!-- PageNotFoundModule&#45;&gt;AppModule -->
<g id="edge33" class="edge">
<title>PageNotFoundModule&#45;&gt;AppModule</title>
<path fill="none" stroke="#000000" d="M1192.1147,-198.0352C1192.1147,-214.7344 1192.1147,-237 1192.1147,-237 1192.1147,-237 1041.0855,-237 1041.0855,-237"/>
<polygon fill="#000000" stroke="#000000" points="1041.0855,-233.5001 1031.0855,-237 1041.0855,-240.5001 1041.0855,-233.5001"/>
</g>
<!-- TextModule -->
<g id="node10" class="node">
<title>TextModule</title>
<polygon fill="#8dd3c7" stroke="#000000" points="582.7079,-198 579.7079,-202 558.7079,-202 555.7079,-198 497.2921,-198 497.2921,-162 582.7079,-162 582.7079,-198"/>
<text text-anchor="middle" x="540" y="-175.8" font-family="Times,serif" font-size="14.00" fill="#000000">TextModule</text>
</g>
<!-- TextModule&#45;&gt;AppModule -->
<g id="edge9" class="edge">
<title>TextModule&#45;&gt;AppModule</title>
<path fill="none" stroke="#000000" d="M540,-198.1686C540,-219.498 540,-252 540,-252 540,-252 937.1624,-252 937.1624,-252"/>
<polygon fill="#000000" stroke="#000000" points="937.1624,-255.5001 947.1624,-252 937.1623,-248.5001 937.1624,-255.5001"/>
</g>
<!-- TextModule&#45;&gt;AppModule -->
<g id="edge23" class="edge">
<title>TextModule&#45;&gt;AppModule</title>
<path fill="none" stroke="#000000" d="M561.3019,-198.0267C561.3019,-218.7672 561.3019,-250 561.3019,-250 561.3019,-250 937.2118,-250 937.2118,-250"/>
<polygon fill="#000000" stroke="#000000" points="937.2118,-253.5001 947.2118,-250 937.2117,-246.5001 937.2118,-253.5001"/>
</g>
<!-- TextModule&#45;&gt;AppModule -->
<g id="edge34" class="edge">
<title>TextModule&#45;&gt;AppModule</title>
<path fill="none" stroke="#000000" d="M518.6981,-198.2921C518.6981,-220.2057 518.6981,-254 518.6981,-254 518.6981,-254 937.2638,-254 937.2638,-254"/>
<polygon fill="#000000" stroke="#000000" points="937.2639,-257.5001 947.2638,-254 937.2638,-250.5001 937.2639,-257.5001"/>
</g>
<!-- UiModule -->
<g id="node11" class="node">
<title>UiModule</title>
<polygon fill="#8dd3c7" stroke="#000000" points="479.5484,-198 476.5484,-202 455.5484,-202 452.5484,-198 406.4516,-198 406.4516,-162 479.5484,-162 479.5484,-198"/>
<text text-anchor="middle" x="443" y="-175.8" font-family="Times,serif" font-size="14.00" fill="#000000">UiModule</text>
</g>
<!-- UiModule&#45;&gt;AppModule -->
<g id="edge10" class="edge">
<title>UiModule&#45;&gt;AppModule</title>
<path fill="none" stroke="#000000" d="M424.6133,-198.3802C424.6133,-222.2785 424.6133,-261 424.6133,-261 424.6133,-261 937.0404,-261 937.0404,-261"/>
<polygon fill="#000000" stroke="#000000" points="937.0404,-264.5001 947.0404,-261 937.0403,-257.5001 937.0404,-264.5001"/>
</g>
<!-- UiModule&#45;&gt;AppModule -->
<g id="edge24" class="edge">
<title>UiModule&#45;&gt;AppModule</title>
<path fill="none" stroke="#000000" d="M443,-198.3228C443,-221.6602 443,-259 443,-259 443,-259 937.0629,-259 937.0629,-259"/>
<polygon fill="#000000" stroke="#000000" points="937.0629,-262.5001 947.0629,-259 937.0629,-255.5001 937.0629,-262.5001"/>
</g>
<!-- UiModule&#45;&gt;AppModule -->
<g id="edge35" class="edge">
<title>UiModule&#45;&gt;AppModule</title>
<path fill="none" stroke="#000000" d="M461.3868,-198.2479C461.3868,-221.0179 461.3868,-257 461.3868,-257 461.3868,-257 937.1581,-257 937.1581,-257"/>
<polygon fill="#000000" stroke="#000000" points="937.1581,-260.5001 947.1581,-257 937.158,-253.5001 937.1581,-260.5001"/>
</g>
<!-- UiComponent  -->
<g id="node21" class="node">
<title>UiComponent </title>
<polygon fill="#fb8072" stroke="#000000" points="122.3297,-122 23.6703,-122 23.6703,-86 122.3297,-86 122.3297,-122"/>
<text text-anchor="middle" x="73" y="-99.8" font-family="Times,serif" font-size="14.00" fill="#000000">UiComponent </text>
</g>
<!-- UiModule&#45;&gt;UiComponent  -->
<g id="edge45" class="edge">
<title>UiModule&#45;&gt;UiComponent </title>
<path fill="none" stroke="#000000" stroke-dasharray="5,2" d="M406.2933,-194C309.8235,-194 56.5284,-194 56.5284,-194 56.5284,-194 56.5284,-132.2128 56.5284,-132.2128"/>
<polygon fill="#000000" stroke="#000000" points="60.0285,-132.2128 56.5284,-122.2128 53.0285,-132.2129 60.0285,-132.2128"/>
</g>
<!-- UiModule&#45;&gt;UiComponent  -->
<g id="edge54" class="edge">
<title>UiModule&#45;&gt;UiComponent </title>
<path fill="none" stroke="#000000" stroke-dasharray="5,2" d="M406.1667,-190C315.6193,-190 89.4716,-190 89.4716,-190 89.4716,-190 89.4716,-132.2384 89.4716,-132.2384"/>
<polygon fill="#000000" stroke="#000000" points="92.9715,-132.2384 89.4716,-122.2384 85.9715,-132.2384 92.9715,-132.2384"/>
</g>
<!-- ClientsRoutingModule -->
<g id="node13" class="node">
<title>ClientsRoutingModule</title>
<polygon fill="#8dd3c7" stroke="#000000" points="824.3356,-122 821.3356,-126 800.3356,-126 797.3356,-122 679.6644,-122 679.6644,-86 824.3356,-86 824.3356,-122"/>
<text text-anchor="middle" x="752" y="-99.8" font-family="Times,serif" font-size="14.00" fill="#000000">ClientsRoutingModule</text>
</g>
<!-- ClientsRoutingModule&#45;&gt;ClientsModule -->
<g id="edge37" class="edge">
<title>ClientsRoutingModule&#45;&gt;ClientsModule</title>
<path fill="none" stroke="#000000" d="M689.7206,-122.0109C689.7206,-122.0109 689.7206,-151.855 689.7206,-151.855"/>
<polygon fill="#000000" stroke="#000000" points="686.2206,-151.8549 689.7206,-161.855 693.2206,-151.855 686.2206,-151.8549"/>
</g>
<!-- LoginRoutingModule -->
<g id="node14" class="node">
<title>LoginRoutingModule</title>
<polygon fill="#8dd3c7" stroke="#000000" points="1002.1108,-122 999.1108,-126 978.1108,-126 975.1108,-122 863.8892,-122 863.8892,-86 1002.1108,-86 1002.1108,-122"/>
<text text-anchor="middle" x="933" y="-99.8" font-family="Times,serif" font-size="14.00" fill="#000000">LoginRoutingModule</text>
</g>
<!-- LoginRoutingModule&#45;&gt;LoginModule -->
<g id="edge38" class="edge">
<title>LoginRoutingModule&#45;&gt;LoginModule</title>
<path fill="none" stroke="#000000" d="M884.5692,-122.1686C884.5692,-126.0459 884.5692,-129 884.5692,-129 884.5692,-129 764,-129 764,-129 764,-129 764,-151.8757 764,-151.8757"/>
<polygon fill="#000000" stroke="#000000" points="760.5001,-151.8757 764,-161.8757 767.5001,-151.8757 760.5001,-151.8757"/>
</g>
<!-- OrdersRoutingModule -->
<g id="node15" class="node">
<title>OrdersRoutingModule</title>
<polygon fill="#8dd3c7" stroke="#000000" points="1184.2548,-122 1181.2548,-126 1160.2548,-126 1157.2548,-122 1041.7452,-122 1041.7452,-86 1184.2548,-86 1184.2548,-122"/>
<text text-anchor="middle" x="1113" y="-99.8" font-family="Times,serif" font-size="14.00" fill="#000000">OrdersRoutingModule</text>
</g>
<!-- OrdersRoutingModule&#45;&gt;OrdersModule -->
<g id="edge39" class="edge">
<title>OrdersRoutingModule&#45;&gt;OrdersModule</title>
<path fill="none" stroke="#000000" d="M1047.5444,-122.2434C1047.5444,-129.4297 1047.5444,-136 1047.5444,-136 1047.5444,-136 905.1938,-136 905.1938,-136 905.1938,-136 905.1938,-151.8495 905.1938,-151.8495"/>
<polygon fill="#000000" stroke="#000000" points="901.6939,-151.8494 905.1938,-161.8495 908.6939,-151.8495 901.6939,-151.8494"/>
</g>
<!-- PageNotFoundRoutingModule -->
<g id="node16" class="node">
<title>PageNotFoundRoutingModule</title>
<polygon fill="#8dd3c7" stroke="#000000" points="1412.1595,-122 1409.1595,-126 1388.1595,-126 1385.1595,-122 1223.8405,-122 1223.8405,-86 1412.1595,-86 1412.1595,-122"/>
<text text-anchor="middle" x="1318" y="-99.8" font-family="Times,serif" font-size="14.00" fill="#000000">PageNotFoundRoutingModule</text>
</g>
<!-- PageNotFoundRoutingModule&#45;&gt;PageNotFoundModule -->
<g id="edge40" class="edge">
<title>PageNotFoundRoutingModule&#45;&gt;PageNotFoundModule</title>
<path fill="none" stroke="#000000" d="M1261.7206,-122.0109C1261.7206,-122.0109 1261.7206,-151.855 1261.7206,-151.855"/>
<polygon fill="#000000" stroke="#000000" points="1258.2206,-151.8549 1261.7206,-161.855 1265.2206,-151.855 1258.2206,-151.8549"/>
</g>
<!-- FooterComponent -->
<g id="node17" class="node">
<title>FooterComponent</title>
<polygon fill="#ffffb3" stroke="#000000" points="639.8809,-122 522.1191,-122 522.1191,-86 639.8809,-86 639.8809,-122"/>
<text text-anchor="middle" x="581" y="-99.8" font-family="Times,serif" font-size="14.00" fill="#000000">FooterComponent</text>
</g>
<!-- FooterComponent&#45;&gt;UiModule -->
<g id="edge41" class="edge">
<title>FooterComponent&#45;&gt;UiModule</title>
<path fill="none" stroke="#000000" d="M552.3317,-122.0439C552.3317,-134.5633 552.3317,-149 552.3317,-149 552.3317,-149 458.7601,-149 458.7601,-149 458.7601,-149 458.7601,-151.9672 458.7601,-151.9672"/>
<polygon fill="#000000" stroke="#000000" points="455.2602,-151.9671 458.7601,-161.9672 462.2602,-151.9672 455.2602,-151.9671"/>
</g>
<!-- FooterComponent&#45;&gt;UiModule -->
<g id="edge46" class="edge">
<title>FooterComponent&#45;&gt;UiModule</title>
<path fill="none" stroke="#000000" d="M537.1957,-122.1097C537.1957,-131.897 537.1957,-142 537.1957,-142 537.1957,-142 448.2534,-142 448.2534,-142 448.2534,-142 448.2534,-151.8903 448.2534,-151.8903"/>
<polygon fill="#000000" stroke="#000000" points="444.7535,-151.8903 448.2534,-161.8903 451.7535,-151.8904 444.7535,-151.8903"/>
</g>
<!-- FooterComponent&#45;&gt;UiModule -->
<g id="edge50" class="edge">
<title>FooterComponent&#45;&gt;UiModule</title>
<path fill="none" stroke="#000000" d="M567.4678,-122.1871C567.4678,-137.1824 567.4678,-156 567.4678,-156 567.4678,-156 469.2668,-156 469.2668,-156 469.2668,-156 469.2668,-156.581 469.2668,-156.581"/>
<polygon fill="#000000" stroke="#000000" points="465.767,-151.8097 469.2668,-161.8097 472.767,-151.8098 465.767,-151.8097"/>
</g>
<!-- HeaderComponent -->
<g id="node18" class="node">
<title>HeaderComponent</title>
<polygon fill="#ffffb3" stroke="#000000" points="503.7437,-122 382.2563,-122 382.2563,-86 503.7437,-86 503.7437,-122"/>
<text text-anchor="middle" x="443" y="-99.8" font-family="Times,serif" font-size="14.00" fill="#000000">HeaderComponent</text>
</g>
<!-- HeaderComponent&#45;&gt;UiModule -->
<g id="edge42" class="edge">
<title>HeaderComponent&#45;&gt;UiModule</title>
<path fill="none" stroke="#000000" d="M437.7466,-122.0109C437.7466,-122.0109 437.7466,-151.855 437.7466,-151.855"/>
<polygon fill="#000000" stroke="#000000" points="434.2467,-151.8549 437.7466,-161.855 441.2467,-151.855 434.2467,-151.8549"/>
</g>
<!-- HeaderComponent&#45;&gt;UiModule -->
<g id="edge47" class="edge">
<title>HeaderComponent&#45;&gt;UiModule</title>
<path fill="none" stroke="#000000" d="M427.2399,-122.0109C427.2399,-122.0109 427.2399,-151.855 427.2399,-151.855"/>
<polygon fill="#000000" stroke="#000000" points="423.74,-151.8549 427.2399,-161.855 430.74,-151.855 423.74,-151.8549"/>
</g>
<!-- HeaderComponent&#45;&gt;UiModule -->
<g id="edge51" class="edge">
<title>HeaderComponent&#45;&gt;UiModule</title>
<path fill="none" stroke="#000000" d="M416.7332,-122.0109C416.7332,-122.0109 416.7332,-151.855 416.7332,-151.855"/>
<polygon fill="#000000" stroke="#000000" points="413.2333,-151.8549 416.7332,-161.855 420.2333,-151.855 413.2333,-151.8549"/>
</g>
<!-- NavComponent -->
<g id="node19" class="node">
<title>NavComponent</title>
<polygon fill="#ffffb3" stroke="#000000" points="364.1542,-122 259.8458,-122 259.8458,-86 364.1542,-86 364.1542,-122"/>
<text text-anchor="middle" x="312" y="-99.8" font-family="Times,serif" font-size="14.00" fill="#000000">NavComponent</text>
</g>
<!-- NavComponent&#45;&gt;UiModule -->
<g id="edge43" class="edge">
<title>NavComponent&#45;&gt;UiModule</title>
<path fill="none" stroke="#000000" d="M312,-122.0348C312,-141.5762 312,-170 312,-170 312,-170 396.1606,-170 396.1606,-170"/>
<polygon fill="#000000" stroke="#000000" points="396.1606,-173.5001 406.1606,-170 396.1605,-166.5001 396.1606,-173.5001"/>
</g>
<!-- NavComponent&#45;&gt;UiModule -->
<g id="edge48" class="edge">
<title>NavComponent&#45;&gt;UiModule</title>
<path fill="none" stroke="#000000" d="M338.1634,-122.2667C338.1634,-140.5552 338.1634,-166 338.1634,-166 338.1634,-166 396.3332,-166 396.3332,-166"/>
<polygon fill="#000000" stroke="#000000" points="396.3333,-169.5001 406.3332,-166 396.3332,-162.5001 396.3333,-169.5001"/>
</g>
<!-- NavComponent&#45;&gt;UiModule -->
<g id="edge52" class="edge">
<title>NavComponent&#45;&gt;UiModule</title>
<path fill="none" stroke="#000000" d="M285.8366,-122.0267C285.8366,-142.7672 285.8366,-174 285.8366,-174 285.8366,-174 396.1522,-174 396.1522,-174"/>
<polygon fill="#000000" stroke="#000000" points="396.1522,-177.5001 406.1522,-174 396.1521,-170.5001 396.1522,-177.5001"/>
</g>
<!-- UiComponent -->
<g id="node20" class="node">
<title>UiComponent</title>
<polygon fill="#ffffb3" stroke="#000000" points="241.8302,-122 146.1698,-122 146.1698,-86 241.8302,-86 241.8302,-122"/>
<text text-anchor="middle" x="194" y="-99.8" font-family="Times,serif" font-size="14.00" fill="#000000">UiComponent</text>
</g>
<!-- UiComponent&#45;&gt;UiModule -->
<g id="edge44" class="edge">
<title>UiComponent&#45;&gt;UiModule</title>
<path fill="none" stroke="#000000" d="M170.1676,-122.1985C170.1676,-146.3563 170.1676,-186 170.1676,-186 170.1676,-186 396.2046,-186 396.2046,-186"/>
<polygon fill="#000000" stroke="#000000" points="396.2046,-189.5001 406.2046,-186 396.2046,-182.5001 396.2046,-189.5001"/>
</g>
<!-- UiComponent&#45;&gt;UiModule -->
<g id="edge49" class="edge">
<title>UiComponent&#45;&gt;UiModule</title>
<path fill="none" stroke="#000000" d="M217.8324,-122.2921C217.8324,-144.2057 217.8324,-178 217.8324,-178 217.8324,-178 396.3218,-178 396.3218,-178"/>
<polygon fill="#000000" stroke="#000000" points="396.3218,-181.5001 406.3218,-178 396.3218,-174.5001 396.3218,-181.5001"/>
</g>
<!-- UiComponent&#45;&gt;UiModule -->
<g id="edge53" class="edge">
<title>UiComponent&#45;&gt;UiModule</title>
<path fill="none" stroke="#000000" d="M194,-122.0908C194,-145.1328 194,-182 194,-182 194,-182 396.2592,-182 396.2592,-182"/>
<polygon fill="#000000" stroke="#000000" points="396.2592,-185.5001 406.2592,-182 396.2592,-178.5001 396.2592,-185.5001"/>
</g>
</g>
</svg>
